<svg preserveAspectRatio="none" overflow="visible" style="display: block;" width="216.808" height="32.4463" viewBox="0 0 216.808 32.4463" fill="none" xmlns="http://www.w3.org/2000/svg">
<g id="Vector">
<path d="M195.903 32.0108C195.555 32.0108 195.38 31.8656 195.38 31.5752C195.38 31.3139 195.613 31.1252 196.077 31.0091L196.774 30.8784C197.355 30.7623 197.863 30.4864 198.298 30.0509C198.705 29.5864 199.097 28.9476 199.474 28.1346L212.496 0.914589C212.642 0.624242 212.787 0.435516 212.932 0.348412C213.077 0.261309 213.208 0.217758 213.324 0.217758C213.469 0.217758 213.585 0.261309 213.672 0.348412C213.788 0.435516 213.846 0.624242 213.846 0.914589L214.326 28.5266C214.355 29.3396 214.456 29.9058 214.63 30.2251C214.805 30.5155 215.168 30.7332 215.719 30.8784L216.285 31.0091C216.634 31.0962 216.808 31.2704 216.808 31.5317C216.808 31.8511 216.561 32.0108 216.068 32.0108H208.882C208.504 32.0108 208.315 31.8656 208.315 31.5752C208.315 31.2559 208.606 31.0671 209.186 31.0091L210.057 30.922C210.551 30.8639 210.885 30.7042 211.059 30.4429C211.262 30.1816 211.364 29.7315 211.364 29.0928L211.277 22.3422C211.277 21.5873 210.885 21.2099 210.101 21.2099H205.441C204.686 21.2099 204.12 21.5873 203.742 22.3422L200.912 28.1782C200.128 29.8332 200.389 30.7478 201.695 30.922L202.305 31.0091C202.741 31.0671 202.958 31.2414 202.958 31.5317C202.958 31.8511 202.712 32.0108 202.218 32.0108H195.903ZM205.615 19.9033H210.493C210.987 19.9033 211.233 19.6565 211.233 19.1629L211.146 7.27319H210.928L205.223 19.1629C205.107 19.3662 205.093 19.5404 205.18 19.6855C205.267 19.8307 205.412 19.9033 205.615 19.9033Z" fill="white"/>
<path d="M178.21 32.0108C177.804 32.0108 177.6 31.8656 177.6 31.5752C177.6 31.2559 177.891 31.0526 178.471 30.9655L179.342 30.8349C179.981 30.7478 180.417 30.6026 180.649 30.3993C180.91 30.1671 181.099 29.7461 181.215 29.1363L187.138 3.52771C187.283 2.91798 187.283 2.51149 187.138 2.30825C186.993 2.10501 186.63 1.94532 186.049 1.82918L185.178 1.65497C184.801 1.56786 184.612 1.40817 184.612 1.1759C184.612 0.827478 184.873 0.653275 185.396 0.653275H193.192C193.627 0.653275 193.845 0.812958 193.845 1.13234C193.845 1.45172 193.613 1.64045 193.148 1.69852L192.016 1.82918C191.377 1.88725 190.942 2.04694 190.709 2.30825C190.477 2.54053 190.288 2.96153 190.143 3.57126L187.399 15.4174C187.341 15.6497 187.37 15.8094 187.487 15.8965C187.632 15.9836 187.791 15.9255 187.966 15.7223L197.852 4.35519C199.1 2.87442 199.202 2.03242 198.157 1.82918L197.329 1.65497C196.923 1.56786 196.72 1.39365 196.72 1.13234C196.72 0.812958 196.952 0.653275 197.416 0.653275H204.864C205.27 0.653275 205.474 0.798444 205.474 1.08879C205.474 1.43721 205.241 1.62593 204.777 1.65497L203.906 1.74207C203.006 1.82918 202.222 2.09049 201.554 2.52601C200.886 2.96153 200.059 3.74547 199.071 4.87782L192.234 12.6736C191.885 13.1382 191.784 13.6028 191.929 14.0673L196.589 29.4412C196.734 29.9057 196.894 30.2397 197.068 30.4429C197.271 30.6461 197.533 30.7768 197.852 30.8349L198.767 31.0091C199.115 31.0962 199.289 31.2559 199.289 31.4881C199.289 31.8366 199.042 32.0108 198.549 32.0108H191.276C190.869 32.0108 190.666 31.8656 190.666 31.5752C190.666 31.2559 190.898 31.0671 191.363 31.0091L192.147 30.922C193.279 30.7768 193.671 30.0654 193.323 28.7879L189.795 16.6369C189.737 16.4046 189.621 16.2739 189.446 16.2449C189.272 16.2159 189.113 16.2885 188.967 16.4627L187.312 18.3354C187.022 18.6548 186.79 18.9887 186.616 19.3371C186.441 19.6855 186.296 20.0775 186.18 20.513L184.22 29.0928C184.104 29.7025 184.104 30.1235 184.22 30.3558C184.365 30.5881 184.728 30.7478 185.309 30.8349L186.354 31.0091C186.674 31.0381 186.833 31.1978 186.833 31.4881C186.833 31.8366 186.572 32.0108 186.049 32.0108H178.21Z" fill="white"/>
<path d="M168.028 32.4463C167.912 32.4463 167.796 32.4027 167.68 32.3156C167.563 32.2285 167.505 32.0398 167.505 31.7495L167.026 4.13744C166.997 3.32446 166.896 2.75829 166.721 2.4389C166.547 2.11952 166.184 1.90177 165.633 1.78563L165.066 1.65497C164.718 1.56786 164.544 1.39365 164.544 1.13234C164.544 0.812958 164.791 0.653275 165.284 0.653275H172.47C172.848 0.653275 173.036 0.798444 173.036 1.08879C173.036 1.40817 172.746 1.5969 172.165 1.65497L171.294 1.74207C170.801 1.77111 170.452 1.9308 170.249 2.22115C170.075 2.48246 169.988 2.9325 169.988 3.57126L170.206 24.1714C170.206 24.4617 170.293 24.6214 170.467 24.6505C170.641 24.6795 170.786 24.5779 170.902 24.3456L180.44 4.48586C181.253 2.83088 180.992 1.91628 179.656 1.74207L179.047 1.65497C178.611 1.56786 178.393 1.39365 178.393 1.13234C178.393 0.812958 178.64 0.653275 179.134 0.653275H185.449C185.797 0.653275 185.971 0.798444 185.971 1.08879C185.971 1.3501 185.739 1.53883 185.275 1.65497L184.578 1.78563C183.997 1.90177 183.503 2.19211 183.097 2.65667C182.691 3.09219 182.284 3.71643 181.878 4.5294L168.855 31.7495C168.739 32.0398 168.594 32.2285 168.42 32.3156C168.275 32.4027 168.144 32.4463 168.028 32.4463Z" fill="white"/>
<path d="M142.063 32.0108C141.715 32.0108 141.541 31.8656 141.541 31.5752C141.541 31.3139 141.773 31.1252 142.238 31.0091L142.934 30.8784C143.515 30.7623 144.023 30.4864 144.459 30.0509C144.865 29.5864 145.257 28.9476 145.635 28.1346L158.657 0.914589C158.802 0.624242 158.947 0.435516 159.092 0.348412C159.237 0.261309 159.368 0.217758 159.484 0.217758C159.629 0.217758 159.746 0.261309 159.833 0.348412C159.949 0.435516 160.007 0.624242 160.007 0.914589L160.486 28.5266C160.515 29.3396 160.617 29.9058 160.791 30.2251C160.965 30.5155 161.328 30.7332 161.88 30.8784L162.446 31.0091C162.794 31.0962 162.968 31.2704 162.968 31.5317C162.968 31.8511 162.722 32.0108 162.228 32.0108H155.042C154.665 32.0108 154.476 31.8656 154.476 31.5752C154.476 31.2559 154.766 31.0671 155.347 31.0091L156.218 30.922C156.711 30.8639 157.045 30.7042 157.22 30.4429C157.423 30.1816 157.524 29.7315 157.524 29.0928L157.437 22.3422C157.437 21.5873 157.045 21.2099 156.261 21.2099H151.601C150.846 21.2099 150.28 21.5873 149.903 22.3422L147.072 28.1782C146.288 29.8332 146.549 30.7478 147.856 30.922L148.466 31.0091C148.901 31.0671 149.119 31.2414 149.119 31.5317C149.119 31.8511 148.872 32.0108 148.379 32.0108H142.063ZM151.776 19.9033H156.653C157.147 19.9033 157.394 19.6565 157.394 19.1629L157.307 7.27319H157.089L151.384 19.1629C151.267 19.3662 151.253 19.5404 151.34 19.6855C151.427 19.8307 151.572 19.9033 151.776 19.9033Z" fill="white"/>
<path d="M130.329 32.0108C129.922 32.0108 129.719 31.8656 129.719 31.5753C129.719 31.2849 129.951 31.0962 130.416 31.0091L132.245 30.7042C132.826 30.6171 133.261 30.4719 133.551 30.2687C133.842 30.0364 134.045 29.6154 134.161 29.0057L140.215 2.87444C140.302 2.46795 140.258 2.1776 140.084 2.0034C139.939 1.82919 139.591 1.74208 139.039 1.74208C138.052 1.74208 136.963 2.14856 135.773 2.96153C134.611 3.74547 133.566 5.22624 132.637 7.40385L131.94 9.05883C131.795 9.43628 131.548 9.62501 131.2 9.62501C130.793 9.62501 130.662 9.37821 130.808 8.88462L132.985 1.00169C133.159 0.333895 133.479 0 133.943 0C134.205 0 134.408 0.0580629 134.553 0.174202C134.727 0.261305 135.003 0.362926 135.381 0.479065C135.758 0.595204 136.411 0.653275 137.34 0.653275H147.053C147.982 0.653275 148.664 0.595204 149.1 0.479065C149.564 0.362926 149.898 0.261305 150.101 0.174202C150.333 0.0580629 150.537 0 150.711 0C151.205 0 151.379 0.333895 151.234 1.00169L149.84 8.88462C149.753 9.37821 149.506 9.62501 149.1 9.62501C148.722 9.62501 148.562 9.43628 148.62 9.05883L148.708 7.97002C148.882 5.82146 148.606 4.25358 147.88 3.2664C147.154 2.25019 146.138 1.74208 144.831 1.74208C144.28 1.74208 143.888 1.82919 143.655 2.0034C143.452 2.1776 143.307 2.46795 143.22 2.87444L137.166 29.0057C137.021 29.6154 137.036 30.0364 137.21 30.2687C137.413 30.4719 137.79 30.6171 138.342 30.7042L140.389 31.0091C140.708 31.0381 140.868 31.1978 140.868 31.4882C140.868 31.8366 140.636 32.0108 140.171 32.0108H130.329Z" fill="white"/>
<path d="M117.894 32.4027C117.081 32.4027 116.21 32.3156 115.281 32.1414C114.381 31.9672 113.524 31.7349 112.711 31.4446C111.927 31.1252 111.303 30.7623 110.838 30.3558C110.693 30.2106 110.592 30.0654 110.533 29.9203C110.504 29.7751 110.519 29.5573 110.577 29.267L111.796 22.4293C111.884 21.9067 112.116 21.6454 112.493 21.6454C112.842 21.6454 113.016 21.9357 113.016 22.5164L113.059 24.215C113.118 26.6539 113.539 28.4105 114.322 29.4847C115.106 30.559 116.384 31.0962 118.155 31.0962C119.781 31.0962 121.131 30.5155 122.205 29.3541C123.28 28.1637 123.817 26.5813 123.817 24.6069C123.817 23.3294 123.468 21.9938 122.772 20.6001C122.075 19.2065 121.102 17.8128 119.854 16.4191C118.373 14.7641 117.27 13.2543 116.544 11.8897C115.847 10.5251 115.498 9.08786 115.498 7.57806C115.498 6.38763 115.789 5.24076 116.369 4.13744C116.95 3.00509 117.821 2.07597 118.983 1.35011C120.173 0.595204 121.683 0.217758 123.512 0.217758C126.038 0.217758 127.969 0.783929 129.304 1.91628C129.711 2.23567 129.856 2.71474 129.74 3.3535L128.52 9.7121C128.433 10.1476 128.23 10.3654 127.911 10.3654C127.591 10.3654 127.403 10.1186 127.345 9.62501L127.301 8.71041C127.185 6.3586 126.851 4.57296 126.299 3.3535C125.777 2.10501 124.717 1.48077 123.12 1.48077C121.959 1.48077 121.03 1.74208 120.333 2.2647C119.636 2.78733 119.128 3.44061 118.808 4.22455C118.489 4.97945 118.329 5.73435 118.329 6.48925C118.329 7.33126 118.445 8.14423 118.678 8.92817C118.91 9.68307 119.302 10.496 119.854 11.3671C120.434 12.2091 121.218 13.2398 122.205 14.4593C123.599 16.1143 124.688 17.6967 125.472 19.2065C126.256 20.7163 126.648 22.1825 126.648 23.6052C126.648 25.3183 126.256 26.8426 125.472 28.1782C124.717 29.4847 123.686 30.5155 122.38 31.2704C121.073 32.0253 119.578 32.4027 117.894 32.4027Z" fill="white"/>
<path d="M98.0418 32.4027C95.7771 32.4027 93.977 31.4736 92.6414 29.6154C91.3348 27.7572 90.6815 25.0279 90.6815 21.4276C90.6815 19.279 90.9283 17.174 91.4219 15.1126C91.9155 13.0511 92.5978 11.1348 93.4689 9.36369C94.3399 7.56354 95.3416 5.98115 96.474 4.61652C97.6354 3.22285 98.8693 2.14856 100.176 1.39366C101.511 0.609724 102.876 0.217758 104.27 0.217758C106.534 0.217758 108.32 1.14687 109.627 3.00509C110.962 4.83427 111.63 7.56354 111.63 11.1929C111.63 13.3414 111.383 15.4465 110.89 17.5079C110.396 19.5694 109.714 21.5002 108.843 23.3004C107.972 25.0715 106.956 26.6539 105.794 28.0475C104.662 29.4122 103.428 30.4864 102.092 31.2704C100.786 32.0253 99.4355 32.4027 98.0418 32.4027ZM97.9547 31.2704C99.029 31.2704 100.074 30.8494 101.09 30.0074C102.136 29.1363 103.108 27.9604 104.008 26.4797C104.938 24.9698 105.751 23.2423 106.447 21.297C107.144 19.3226 107.681 17.2321 108.059 15.0255C108.465 12.8188 108.669 10.5832 108.669 8.31844C108.669 3.67289 107.231 1.35011 104.357 1.35011C103.283 1.35011 102.223 1.78563 101.178 2.65667C100.161 3.49868 99.1887 4.67458 98.2596 6.18439C97.3595 7.66516 96.5611 9.39273 95.8642 11.3671C95.1674 13.3124 94.6157 15.3884 94.2093 17.595C93.8318 19.8017 93.6431 22.0373 93.6431 24.3021C93.6431 28.9476 95.0803 31.2704 97.9547 31.2704Z" fill="white"/>
<path d="M65.0018 32.0108C64.5953 32.0108 64.3921 31.8656 64.3921 31.5752C64.3921 31.2559 64.6824 31.0526 65.2631 30.9655L66.1342 30.8349C66.7729 30.7478 67.2084 30.6026 67.4407 30.3993C67.702 30.1671 67.8908 29.7461 68.0069 29.1363L73.93 3.52771C74.0752 2.91798 74.0752 2.51149 73.93 2.30825C73.7848 2.10501 73.4219 1.94532 72.8412 1.82918L71.9701 1.65497C71.5927 1.56786 71.404 1.40817 71.404 1.1759C71.404 0.827478 71.6653 0.653275 72.1879 0.653275H80.9419C83.4388 0.653275 85.4132 1.58238 86.865 3.44061C88.3457 5.26979 89.0861 7.99905 89.0861 11.6284C89.0861 14.2996 88.6651 16.8692 87.8231 19.3371C86.9811 21.776 85.8487 23.9536 84.426 25.8699C83.0033 27.7572 81.3774 29.2525 79.5482 30.3558C77.748 31.4591 75.8608 32.0108 73.8864 32.0108H65.0018ZM74.1042 30.8784C75.7592 30.8784 77.3125 30.2687 78.7643 29.0492C80.216 27.8298 81.4935 26.1748 82.5968 24.0843C83.7002 21.9648 84.5567 19.5839 85.1664 16.9417C85.8052 14.2996 86.1246 11.5703 86.1246 8.75396C86.1246 6.43118 85.6455 4.6891 84.6873 3.52771C83.7292 2.36632 82.3936 1.78563 80.6806 1.78563C78.503 1.78563 77.1674 2.84539 76.6738 4.96493L71.4475 27.6991C71.1862 28.8605 71.2878 29.688 71.7524 30.1816C72.246 30.6461 73.0299 30.8784 74.1042 30.8784Z" fill="white"/>
<path d="M55.6834 32.4027C55.2188 32.4027 54.8268 32.0543 54.5075 31.3575L42.7048 5.74886C42.6177 5.54562 42.5016 5.45851 42.3564 5.48755C42.2403 5.51658 42.1822 5.64724 42.1822 5.87952V28.2653C42.1822 29.0783 42.3129 29.7025 42.5742 30.138C42.8645 30.5445 43.3726 30.8058 44.0985 30.922L44.6647 31.0091C45.0421 31.0381 45.2309 31.2123 45.2309 31.5317C45.2309 31.8511 45.0131 32.0108 44.5776 32.0108H38.3496C37.9141 32.0108 37.6964 31.8511 37.6964 31.5317C37.6964 31.2123 37.8851 31.0381 38.2625 31.0091L38.8287 30.922C39.5836 30.8058 40.1062 30.5445 40.3966 30.138C40.6869 29.7025 40.8321 29.0783 40.8321 28.2653V3.52771C40.8321 2.91798 40.7305 2.51149 40.5272 2.30825C40.353 2.10501 39.932 1.94532 39.2642 1.82918L38.2625 1.65497C37.8851 1.56786 37.6964 1.39365 37.6964 1.13234C37.6964 0.812958 37.9141 0.653275 38.3496 0.653275H43.0097C43.7356 0.653275 44.2437 0.972655 44.534 1.61142L54.8123 24.2149C54.8994 24.3892 55.0011 24.4617 55.1172 24.4327C55.2624 24.4037 55.335 24.302 55.335 24.1278V4.39875C55.335 3.46964 55.1753 2.83088 54.8559 2.48246C54.5365 2.10501 54.13 1.87273 53.6364 1.78563L52.8525 1.65497C52.475 1.56786 52.2863 1.39365 52.2863 1.13234C52.2863 0.812958 52.5041 0.653275 52.9396 0.653275H59.1675C59.6031 0.653275 59.8208 0.812958 59.8208 1.13234C59.8208 1.45172 59.6321 1.62593 59.2546 1.65497L58.6885 1.74207C57.9336 1.85821 57.4109 2.10501 57.1206 2.48246C56.8302 2.83088 56.6851 3.46964 56.6851 4.39875V31.0091C56.6851 31.5317 56.5834 31.8946 56.3802 32.0979C56.206 32.3011 55.9737 32.4027 55.6834 32.4027Z" fill="white"/>
<path d="M26.6066 32.4027C25.0387 32.4027 23.645 32.0398 22.4256 31.3139C21.2352 30.559 20.306 29.5283 19.6382 28.2217C18.9704 26.8861 18.6365 25.3618 18.6365 23.6488V3.52771C18.6365 2.91798 18.5349 2.51149 18.3317 2.30825C18.1575 2.10501 17.7655 1.94532 17.1558 1.82918L16.1541 1.65497C15.7766 1.56786 15.5879 1.39365 15.5879 1.13234C15.5879 0.812958 15.8057 0.653275 16.2412 0.653275H24.2112C24.6467 0.653275 24.8645 0.827478 24.8645 1.1759C24.8645 1.43721 24.7048 1.5969 24.3854 1.65497L23.2095 1.82918C22.6288 1.91628 22.2368 2.07597 22.0336 2.30825C21.8304 2.54053 21.7287 2.96153 21.7287 3.57126V23.6923C21.7287 25.899 22.2223 27.612 23.2095 28.8315C24.1967 30.0509 25.5758 30.6607 27.347 30.6607C29.1471 30.6607 30.5408 30.0509 31.528 28.8315C32.5151 27.612 33.0087 25.899 33.0087 23.6923V4.4423C33.0087 2.87442 32.5151 2.00339 31.528 1.82918L30.3521 1.65497C30.0327 1.5969 29.873 1.43721 29.873 1.1759C29.873 0.827478 30.0907 0.653275 30.5263 0.653275H36.7978C37.2333 0.653275 37.451 0.812958 37.451 1.13234C37.451 1.39365 37.2623 1.56786 36.8849 1.65497L35.8832 1.82918C34.896 2.00339 34.4024 2.85991 34.4024 4.39875V23.6488C34.4024 26.2909 33.691 28.4105 32.2683 30.0074C30.8456 31.6043 28.9584 32.4027 26.6066 32.4027Z" fill="white"/>
<path d="M6.22795 32.4027C5.64725 32.4027 4.99397 32.3447 4.2681 32.2285C3.57127 32.1124 2.90347 31.9672 2.26471 31.793C1.65498 31.6188 1.17591 31.4301 0.82749 31.2268C0.624247 31.1107 0.464556 30.9946 0.348417 30.8784C0.261313 30.7332 0.217761 30.501 0.217761 30.1816L0 23.3439C0 22.7632 0.188726 22.4729 0.566177 22.4729C0.885559 22.4729 1.10332 22.7342 1.21946 23.2568L1.61143 24.9118C2.59861 29.0637 4.44231 31.1397 7.14254 31.1397C8.59428 31.1397 9.74115 30.6607 10.5832 29.7025C11.4542 28.7153 11.8897 27.3362 11.8897 25.5651C11.8897 23.852 11.4397 22.2551 10.5396 20.7743C9.66856 19.2936 8.26038 17.8273 6.31505 16.3756C4.16648 14.8367 2.59861 13.356 1.61143 11.9333C0.624247 10.4815 0.130656 8.94269 0.130656 7.31674C0.130656 5.16817 0.871042 3.45513 2.35181 2.1776C3.86162 0.871036 5.77791 0.217758 8.10069 0.217758C8.97173 0.217758 9.81373 0.319379 10.6267 0.522621C11.4397 0.725865 12.1075 1.01621 12.6301 1.39366C12.8043 1.5098 12.935 1.64045 13.0221 1.78563C13.1382 1.9308 13.1963 2.11953 13.1963 2.35181L13.3269 8.92817C13.3269 9.42176 13.1382 9.66856 12.7608 9.66856C12.4994 9.66856 12.3107 9.46532 12.1946 9.05883L11.8897 7.97002C11.251 5.73435 10.5832 4.10841 9.88632 3.09219C9.21852 2.04694 8.24586 1.52431 6.96833 1.52431C5.71984 1.52431 4.71814 1.9308 3.96324 2.74377C3.23737 3.55675 2.87444 4.70362 2.87444 6.18439C2.87444 7.43288 3.28092 8.62331 4.0939 9.75566C4.90687 10.888 6.32957 12.2672 8.362 13.8931C10.5396 15.6642 12.122 17.3773 13.1092 19.0322C14.1254 20.6582 14.6335 22.4003 14.6335 24.2585C14.6335 25.8844 14.2706 27.3071 13.5447 28.5266C12.8188 29.7461 11.8171 30.7042 10.5396 31.401C9.29111 32.0688 7.85389 32.4027 6.22795 32.4027Z" fill="white"/>
</g>
</svg>
